# xmcd
#
# Track frame offsets:
#	150
#	15650
#	42507
#	64300
#	78637
#	102827
#	117062
#	138162
#	155307
#	176590
#
# Disc length: 2621 seconds
#
# Revision: 4
# Processed by: cddbd v1.5.2PL0 Copyright (c) Steve Scherf et al.
# Submitted via: EZCDAudioConverter 3.1.0.1
#
DISCID=7c0a3b0a
DTITLE=Champion Jack Dupree - Back Home In New Orleans
DYEAR=1990
DGENRE=Blues
TTITLE0=When I'm Drinkin'
TTITLE1=Lonesome Bedroom
TTITLE2=I Don't Know
TTITLE3=Calcutta
TTITLE4=Freedom
TTITLE5=My Woman Left Me
TTITLE6=Broken Hearted
TTITLE7=Way Down
TTITLE8=The Blind Man
TTITLE9=No Future
EXTD=
EXTT0=
EXTT1=
EXTT2=
EXTT3=
EXTT4=
EXTT5=
EXTT6=
EXTT7=
EXTT8=
EXTT9=
PLAYORDER=
